<svg width="262" height="92" viewBox="0 0 262 92" fill="none" xmlns="http://www.w3.org/2000/svg">
<path d="M32.5 0C41.1195 0 49.386 3.39249 55.481 9.43116C61.5759 15.4698 65 23.66 65 32.2C65 43.148 59.475 52.762 51.0714 58.604V69C51.0714 70.22 50.5823 71.39 49.7116 72.2527C48.8409 73.1154 47.6599 73.6 46.4286 73.6H18.5714C17.3401 73.6 16.1591 73.1154 15.2884 72.2527C14.4177 71.39 13.9286 70.22 13.9286 69V58.604C5.525 52.762 0 43.148 0 32.2C0 23.66 3.4241 15.4698 9.51903 9.43116C15.614 3.39249 23.8805 0 32.5 0ZM18.5714 87.4V82.8H46.4286V87.4C46.4286 88.62 45.9394 89.79 45.0687 90.6527C44.198 91.5154 43.0171 92 41.7857 92H23.2143C21.9829 92 20.802 91.5154 19.9313 90.6527C19.0606 89.79 18.5714 88.62 18.5714 87.4ZM32.5 9.2C26.3432 9.2 20.4385 11.6232 16.085 15.9365C11.7315 20.2499 9.28571 26.1 9.28571 32.2C9.28571 41.63 14.9964 49.726 23.2143 53.268V64.4H41.7857V53.268C50.0036 49.726 55.7143 41.63 55.7143 32.2C55.7143 26.1 53.2685 20.2499 48.915 15.9365C44.5615 11.6232 38.6568 9.2 32.5 9.2Z" fill="#3C3CE7"/>
<path d="M98.8636 24.9545C98.8636 28.089 98.2765 30.7737 97.1023 33.0085C95.9375 35.2339 94.3466 36.9384 92.3295 38.1222C90.322 39.3059 88.0445 39.8977 85.4972 39.8977C82.9498 39.8977 80.6676 39.3059 78.6506 38.1222C76.643 36.929 75.0521 35.2197 73.8778 32.9943C72.7131 30.7595 72.1307 28.0795 72.1307 24.9545C72.1307 21.8201 72.7131 19.1402 73.8778 16.9148C75.0521 14.6799 76.643 12.9706 78.6506 11.7869C80.6676 10.6032 82.9498 10.0114 85.4972 10.0114C88.0445 10.0114 90.322 10.6032 92.3295 11.7869C94.3466 12.9706 95.9375 14.6799 97.1023 16.9148C98.2765 19.1402 98.8636 21.8201 98.8636 24.9545ZM93.5653 24.9545C93.5653 22.7481 93.2197 20.8873 92.5284 19.3722C91.8466 17.8475 90.8996 16.697 89.6875 15.9205C88.4754 15.1345 87.0786 14.7415 85.4972 14.7415C83.9157 14.7415 82.5189 15.1345 81.3068 15.9205C80.0947 16.697 79.143 17.8475 78.4517 19.3722C77.7699 20.8873 77.429 22.7481 77.429 24.9545C77.429 27.161 77.7699 29.0265 78.4517 30.5511C79.143 32.0663 80.0947 33.2169 81.3068 34.0028C82.5189 34.7794 83.9157 35.1676 85.4972 35.1676C87.0786 35.1676 88.4754 34.7794 89.6875 34.0028C90.8996 33.2169 91.8466 32.0663 92.5284 30.5511C93.2197 29.0265 93.5653 27.161 93.5653 24.9545ZM103.619 47.6818V17.6818H108.675V21.2898H108.974C109.239 20.7595 109.613 20.196 110.096 19.5994C110.579 18.9934 111.232 18.4773 112.056 18.0511C112.88 17.6155 113.931 17.3977 115.21 17.3977C116.895 17.3977 118.415 17.8286 119.769 18.6903C121.133 19.5426 122.212 20.8068 123.008 22.483C123.813 24.1496 124.215 26.1951 124.215 28.6193C124.215 31.0152 123.822 33.0511 123.036 34.7273C122.25 36.4034 121.18 37.6818 119.826 38.5625C118.472 39.4432 116.938 39.8835 115.224 39.8835C113.974 39.8835 112.937 39.6752 112.113 39.2585C111.289 38.8419 110.626 38.34 110.124 37.7528C109.632 37.1562 109.248 36.5928 108.974 36.0625H108.761V47.6818H103.619ZM108.661 28.5909C108.661 30.0019 108.86 31.2377 109.258 32.2983C109.665 33.3589 110.247 34.1875 111.005 34.7841C111.772 35.3712 112.7 35.6648 113.789 35.6648C114.925 35.6648 115.877 35.3617 116.644 34.7557C117.411 34.1402 117.989 33.3021 118.377 32.2415C118.775 31.1714 118.974 29.9545 118.974 28.5909C118.974 27.2367 118.78 26.0341 118.391 24.983C118.003 23.9318 117.425 23.108 116.658 22.5114C115.891 21.9148 114.935 21.6165 113.789 21.6165C112.691 21.6165 111.758 21.9053 110.991 22.483C110.224 23.0606 109.641 23.8703 109.244 24.9119C108.855 25.9536 108.661 27.1799 108.661 28.5909ZM138.278 39.9261C136.09 39.9261 134.201 39.4716 132.61 38.5625C131.029 37.6439 129.812 36.3466 128.96 34.6705C128.107 32.9848 127.681 31.0009 127.681 28.7188C127.681 26.4744 128.107 24.5047 128.96 22.8097C129.821 21.1051 131.024 19.7794 132.567 18.8324C134.111 17.8759 135.924 17.3977 138.008 17.3977C139.353 17.3977 140.621 17.6155 141.815 18.0511C143.017 18.4773 144.078 19.1402 144.996 20.0398C145.924 20.9394 146.654 22.0852 147.184 23.4773C147.714 24.8598 147.979 26.5076 147.979 28.4205V29.9972H130.096V26.5312H143.05C143.041 25.5464 142.828 24.6705 142.411 23.9034C141.995 23.1269 141.412 22.5161 140.664 22.071C139.925 21.6259 139.064 21.4034 138.079 21.4034C137.028 21.4034 136.104 21.6591 135.309 22.1705C134.513 22.6723 133.893 23.3352 133.448 24.1591C133.013 24.9735 132.79 25.8684 132.781 26.8438V29.8693C132.781 31.1383 133.013 32.2273 133.477 33.1364C133.941 34.036 134.589 34.7273 135.423 35.2102C136.256 35.6837 137.231 35.9205 138.349 35.9205C139.097 35.9205 139.774 35.8163 140.38 35.608C140.986 35.3902 141.512 35.0729 141.957 34.6562C142.402 34.2396 142.738 33.7235 142.965 33.108L147.766 33.6477C147.463 34.9167 146.886 36.0246 146.033 36.9716C145.191 37.9091 144.111 38.6383 142.795 39.1591C141.478 39.6705 139.973 39.9261 138.278 39.9261ZM157.472 26.7159V39.5H152.33V17.6818H157.244V21.3892H157.5C158.002 20.1676 158.802 19.197 159.901 18.4773C161.009 17.7576 162.377 17.3977 164.006 17.3977C165.511 17.3977 166.823 17.7197 167.94 18.3636C169.067 19.0076 169.938 19.9403 170.554 21.1619C171.179 22.3835 171.487 23.8655 171.477 25.608V39.5H166.335V26.4034C166.335 24.9451 165.956 23.804 165.199 22.9801C164.451 22.1562 163.414 21.7443 162.088 21.7443C161.188 21.7443 160.388 21.9432 159.688 22.3409C158.996 22.7292 158.452 23.2926 158.054 24.0312C157.666 24.7699 157.472 25.6648 157.472 26.7159Z" fill="#171736"/>
<path d="M72.8693 87.5V58.4091H91.7898V62.8267H78.1392V70.7244H90.8097V75.142H78.1392V83.0824H91.9034V87.5H72.8693ZM105.036 87.8835C103.321 87.8835 101.787 87.4432 100.433 86.5625C99.0791 85.6818 98.009 84.4034 97.223 82.7273C96.437 81.0511 96.044 79.0152 96.044 76.6193C96.044 74.1951 96.4418 72.1496 97.2372 70.483C98.0421 68.8068 99.1264 67.5426 100.49 66.6903C101.854 65.8286 103.374 65.3977 105.05 65.3977C106.328 65.3977 107.379 65.6155 108.203 66.0511C109.027 66.4773 109.68 66.9934 110.163 67.5994C110.646 68.196 111.02 68.7595 111.286 69.2898H111.499V58.4091H116.655V87.5H111.598V84.0625H111.286C111.02 84.5928 110.637 85.1562 110.135 85.7528C109.633 86.34 108.97 86.8419 108.146 87.2585C107.322 87.6752 106.286 87.8835 105.036 87.8835ZM106.47 83.6648C107.559 83.6648 108.487 83.3712 109.254 82.7841C110.021 82.1875 110.604 81.3589 111.001 80.2983C111.399 79.2377 111.598 78.0019 111.598 76.5909C111.598 75.1799 111.399 73.9536 111.001 72.9119C110.613 71.8703 110.036 71.0606 109.268 70.483C108.511 69.9053 107.578 69.6165 106.47 69.6165C105.324 69.6165 104.368 69.9148 103.601 70.5114C102.834 71.108 102.256 71.9318 101.868 72.983C101.48 74.0341 101.286 75.2367 101.286 76.5909C101.286 77.9545 101.48 79.1714 101.868 80.2415C102.266 81.3021 102.848 82.1402 103.615 82.7557C104.392 83.3617 105.343 83.6648 106.47 83.6648ZM136.04 78.3239V65.6818H141.183V87.5H136.197V83.6222H135.969C135.477 84.8437 134.667 85.8428 133.54 86.6193C132.423 87.3958 131.045 87.7841 129.407 87.7841C127.977 87.7841 126.713 87.4669 125.614 86.8324C124.525 86.1884 123.673 85.2557 123.058 84.0341C122.442 82.803 122.134 81.3163 122.134 79.5739V65.6818H127.276V78.7784C127.276 80.161 127.655 81.2595 128.413 82.0739C129.17 82.8883 130.165 83.2955 131.396 83.2955C132.153 83.2955 132.887 83.1108 133.597 82.7415C134.308 82.3722 134.89 81.8229 135.344 81.0938C135.808 80.3551 136.04 79.4318 136.04 78.3239ZM155.987 87.9261C153.809 87.9261 151.939 87.4479 150.376 86.4915C148.823 85.535 147.625 84.214 146.783 82.5284C145.949 80.8333 145.533 78.8826 145.533 76.6761C145.533 74.4602 145.959 72.5047 146.811 70.8097C147.663 69.1051 148.866 67.7794 150.419 66.8324C151.982 65.8759 153.828 65.3977 155.959 65.3977C157.73 65.3977 159.297 65.7244 160.661 66.3778C162.034 67.0218 163.127 67.9356 163.942 69.1193C164.756 70.2936 165.22 71.6667 165.334 73.2386H160.419C160.22 72.1875 159.747 71.3116 158.999 70.6108C158.26 69.9006 157.27 69.5455 156.03 69.5455C154.979 69.5455 154.055 69.8295 153.26 70.3977C152.464 70.9564 151.844 71.7614 151.399 72.8125C150.964 73.8636 150.746 75.1231 150.746 76.5909C150.746 78.0777 150.964 79.3561 151.399 80.4261C151.835 81.4867 152.446 82.3059 153.232 82.8835C154.027 83.4517 154.96 83.7358 156.03 83.7358C156.787 83.7358 157.464 83.5937 158.061 83.3097C158.667 83.0161 159.174 82.5947 159.581 82.0455C159.988 81.4962 160.268 80.8286 160.419 80.0426H165.334C165.211 81.5862 164.756 82.9545 163.97 84.1477C163.184 85.3314 162.114 86.2595 160.76 86.9318C159.406 87.5947 157.815 87.9261 155.987 87.9261ZM175.835 87.9403C174.452 87.9403 173.207 87.6941 172.099 87.2017C171 86.6998 170.129 85.9612 169.485 84.9858C168.851 84.0104 168.533 82.8078 168.533 81.3778C168.533 80.1468 168.761 79.1288 169.215 78.3239C169.67 77.5189 170.29 76.875 171.076 76.392C171.862 75.9091 172.747 75.5445 173.732 75.2983C174.727 75.0426 175.754 74.858 176.815 74.7443C178.093 74.6117 179.13 74.4934 179.925 74.3892C180.721 74.2756 181.299 74.1051 181.658 73.8778C182.028 73.6411 182.212 73.2765 182.212 72.7841V72.6989C182.212 71.6288 181.895 70.8002 181.261 70.2131C180.626 69.6259 179.712 69.3324 178.519 69.3324C177.26 69.3324 176.261 69.607 175.522 70.1562C174.793 70.7055 174.3 71.3542 174.045 72.1023L169.244 71.4205C169.622 70.0947 170.247 68.9867 171.119 68.0966C171.99 67.197 173.055 66.5246 174.315 66.0795C175.574 65.625 176.966 65.3977 178.491 65.3977C179.542 65.3977 180.588 65.5208 181.63 65.767C182.672 66.0133 183.623 66.4205 184.485 66.9886C185.347 67.5473 186.038 68.3097 186.559 69.2756C187.089 70.2415 187.354 71.4489 187.354 72.8977V87.5H182.411V84.5028H182.241C181.928 85.1089 181.488 85.6771 180.92 86.2074C180.361 86.7282 179.656 87.1496 178.803 87.4716C177.96 87.7841 176.971 87.9403 175.835 87.9403ZM177.17 84.1619C178.202 84.1619 179.097 83.9583 179.854 83.5511C180.612 83.1345 181.194 82.5852 181.602 81.9034C182.018 81.2216 182.227 80.4782 182.227 79.6733V77.1023C182.066 77.2348 181.791 77.358 181.403 77.4716C181.024 77.5852 180.598 77.6847 180.124 77.7699C179.651 77.8551 179.182 77.9309 178.718 77.9972C178.254 78.0634 177.852 78.1203 177.511 78.1676C176.744 78.2718 176.057 78.4422 175.451 78.679C174.845 78.9157 174.367 79.2472 174.016 79.6733C173.666 80.09 173.491 80.6297 173.491 81.2926C173.491 82.2396 173.836 82.9545 174.528 83.4375C175.219 83.9205 176.1 84.1619 177.17 84.1619ZM203.42 65.6818V69.6591H190.877V65.6818H203.42ZM193.974 60.4545H199.116V80.9375C199.116 81.6288 199.22 82.1591 199.428 82.5284C199.646 82.8883 199.93 83.1345 200.281 83.267C200.631 83.3996 201.019 83.4659 201.445 83.4659C201.767 83.4659 202.061 83.4422 202.326 83.3949C202.601 83.3475 202.809 83.3049 202.951 83.267L203.817 87.2869C203.543 87.3816 203.15 87.4858 202.638 87.5994C202.137 87.7131 201.521 87.7794 200.792 87.7983C199.504 87.8362 198.344 87.642 197.312 87.2159C196.28 86.7803 195.46 86.108 194.854 85.1989C194.258 84.2898 193.964 83.1534 193.974 81.7898V60.4545ZM207.72 87.5V65.6818H212.862V87.5H207.72ZM210.305 62.5852C209.491 62.5852 208.79 62.3153 208.203 61.7756C207.616 61.2263 207.322 60.5682 207.322 59.8011C207.322 59.0246 207.616 58.3665 208.203 57.8267C208.79 57.2775 209.491 57.0028 210.305 57.0028C211.129 57.0028 211.83 57.2775 212.408 57.8267C212.995 58.3665 213.288 59.0246 213.288 59.8011C213.288 60.5682 212.995 61.2263 212.408 61.7756C211.83 62.3153 211.129 62.5852 210.305 62.5852ZM227.667 87.9261C225.536 87.9261 223.69 87.4574 222.127 86.5199C220.565 85.5824 219.353 84.2708 218.491 82.5852C217.638 80.8996 217.212 78.9299 217.212 76.6761C217.212 74.4223 217.638 72.4479 218.491 70.7528C219.353 69.0578 220.565 67.7415 222.127 66.804C223.69 65.8665 225.536 65.3977 227.667 65.3977C229.798 65.3977 231.644 65.8665 233.207 66.804C234.769 67.7415 235.977 69.0578 236.829 70.7528C237.691 72.4479 238.121 74.4223 238.121 76.6761C238.121 78.9299 237.691 80.8996 236.829 82.5852C235.977 84.2708 234.769 85.5824 233.207 86.5199C231.644 87.4574 229.798 87.9261 227.667 87.9261ZM227.695 83.8068C228.851 83.8068 229.817 83.4896 230.593 82.8551C231.37 82.2112 231.947 81.3494 232.326 80.2699C232.714 79.1903 232.908 77.9877 232.908 76.6619C232.908 75.3267 232.714 74.1193 232.326 73.0398C231.947 71.9508 231.37 71.0843 230.593 70.4403C229.817 69.7964 228.851 69.4744 227.695 69.4744C226.512 69.4744 225.527 69.7964 224.741 70.4403C223.964 71.0843 223.382 71.9508 222.994 73.0398C222.615 74.1193 222.425 75.3267 222.425 76.6619C222.425 77.9877 222.615 79.1903 222.994 80.2699C223.382 81.3494 223.964 82.2112 224.741 82.8551C225.527 83.4896 226.512 83.8068 227.695 83.8068ZM247.628 74.7159V87.5H242.486V65.6818H247.401V69.3892H247.656C248.158 68.1676 248.958 67.197 250.057 66.4773C251.165 65.7576 252.533 65.3977 254.162 65.3977C255.668 65.3977 256.979 65.7197 258.097 66.3636C259.223 67.0076 260.095 67.9403 260.71 69.1619C261.335 70.3835 261.643 71.8655 261.634 73.608V87.5H256.491V74.4034C256.491 72.9451 256.113 71.804 255.355 70.9801C254.607 70.1562 253.57 69.7443 252.244 69.7443C251.345 69.7443 250.545 69.9432 249.844 70.3409C249.152 70.7292 248.608 71.2926 248.21 72.0312C247.822 72.7699 247.628 73.6648 247.628 74.7159Z" fill="black"/>
<path d="M72.8693 87.5V58.4091H91.7898V62.8267H78.1392V70.7244H90.8097V75.142H78.1392V83.0824H91.9034V87.5H72.8693ZM105.036 87.8835C103.321 87.8835 101.787 87.4432 100.433 86.5625C99.0791 85.6818 98.009 84.4034 97.223 82.7273C96.437 81.0511 96.044 79.0152 96.044 76.6193C96.044 74.1951 96.4418 72.1496 97.2372 70.483C98.0421 68.8068 99.1264 67.5426 100.49 66.6903C101.854 65.8286 103.374 65.3977 105.05 65.3977C106.328 65.3977 107.379 65.6155 108.203 66.0511C109.027 66.4773 109.68 66.9934 110.163 67.5994C110.646 68.196 111.02 68.7595 111.286 69.2898H111.499V58.4091H116.655V87.5H111.598V84.0625H111.286C111.02 84.5928 110.637 85.1562 110.135 85.7528C109.633 86.34 108.97 86.8419 108.146 87.2585C107.322 87.6752 106.286 87.8835 105.036 87.8835ZM106.47 83.6648C107.559 83.6648 108.487 83.3712 109.254 82.7841C110.021 82.1875 110.604 81.3589 111.001 80.2983C111.399 79.2377 111.598 78.0019 111.598 76.5909C111.598 75.1799 111.399 73.9536 111.001 72.9119C110.613 71.8703 110.036 71.0606 109.268 70.483C108.511 69.9053 107.578 69.6165 106.47 69.6165C105.324 69.6165 104.368 69.9148 103.601 70.5114C102.834 71.108 102.256 71.9318 101.868 72.983C101.48 74.0341 101.286 75.2367 101.286 76.5909C101.286 77.9545 101.48 79.1714 101.868 80.2415C102.266 81.3021 102.848 82.1402 103.615 82.7557C104.392 83.3617 105.343 83.6648 106.47 83.6648ZM136.04 78.3239V65.6818H141.183V87.5H136.197V83.6222H135.969C135.477 84.8437 134.667 85.8428 133.54 86.6193C132.423 87.3958 131.045 87.7841 129.407 87.7841C127.977 87.7841 126.713 87.4669 125.614 86.8324C124.525 86.1884 123.673 85.2557 123.058 84.0341C122.442 82.803 122.134 81.3163 122.134 79.5739V65.6818H127.276V78.7784C127.276 80.161 127.655 81.2595 128.413 82.0739C129.17 82.8883 130.165 83.2955 131.396 83.2955C132.153 83.2955 132.887 83.1108 133.597 82.7415C134.308 82.3722 134.89 81.8229 135.344 81.0938C135.808 80.3551 136.04 79.4318 136.04 78.3239ZM155.987 87.9261C153.809 87.9261 151.939 87.4479 150.376 86.4915C148.823 85.535 147.625 84.214 146.783 82.5284C145.949 80.8333 145.533 78.8826 145.533 76.6761C145.533 74.4602 145.959 72.5047 146.811 70.8097C147.663 69.1051 148.866 67.7794 150.419 66.8324C151.982 65.8759 153.828 65.3977 155.959 65.3977C157.73 65.3977 159.297 65.7244 160.661 66.3778C162.034 67.0218 163.127 67.9356 163.942 69.1193C164.756 70.2936 165.22 71.6667 165.334 73.2386H160.419C160.22 72.1875 159.747 71.3116 158.999 70.6108C158.26 69.9006 157.27 69.5455 156.03 69.5455C154.979 69.5455 154.055 69.8295 153.26 70.3977C152.464 70.9564 151.844 71.7614 151.399 72.8125C150.964 73.8636 150.746 75.1231 150.746 76.5909C150.746 78.0777 150.964 79.3561 151.399 80.4261C151.835 81.4867 152.446 82.3059 153.232 82.8835C154.027 83.4517 154.96 83.7358 156.03 83.7358C156.787 83.7358 157.464 83.5937 158.061 83.3097C158.667 83.0161 159.174 82.5947 159.581 82.0455C159.988 81.4962 160.268 80.8286 160.419 80.0426H165.334C165.211 81.5862 164.756 82.9545 163.97 84.1477C163.184 85.3314 162.114 86.2595 160.76 86.9318C159.406 87.5947 157.815 87.9261 155.987 87.9261ZM175.835 87.9403C174.452 87.9403 173.207 87.6941 172.099 87.2017C171 86.6998 170.129 85.9612 169.485 84.9858C168.851 84.0104 168.533 82.8078 168.533 81.3778C168.533 80.1468 168.761 79.1288 169.215 78.3239C169.67 77.5189 170.29 76.875 171.076 76.392C171.862 75.9091 172.747 75.5445 173.732 75.2983C174.727 75.0426 175.754 74.858 176.815 74.7443C178.093 74.6117 179.13 74.4934 179.925 74.3892C180.721 74.2756 181.299 74.1051 181.658 73.8778C182.028 73.6411 182.212 73.2765 182.212 72.7841V72.6989C182.212 71.6288 181.895 70.8002 181.261 70.2131C180.626 69.6259 179.712 69.3324 178.519 69.3324C177.26 69.3324 176.261 69.607 175.522 70.1562C174.793 70.7055 174.3 71.3542 174.045 72.1023L169.244 71.4205C169.622 70.0947 170.247 68.9867 171.119 68.0966C171.99 67.197 173.055 66.5246 174.315 66.0795C175.574 65.625 176.966 65.3977 178.491 65.3977C179.542 65.3977 180.588 65.5208 181.63 65.767C182.672 66.0133 183.623 66.4205 184.485 66.9886C185.347 67.5473 186.038 68.3097 186.559 69.2756C187.089 70.2415 187.354 71.4489 187.354 72.8977V87.5H182.411V84.5028H182.241C181.928 85.1089 181.488 85.6771 180.92 86.2074C180.361 86.7282 179.656 87.1496 178.803 87.4716C177.96 87.7841 176.971 87.9403 175.835 87.9403ZM177.17 84.1619C178.202 84.1619 179.097 83.9583 179.854 83.5511C180.612 83.1345 181.194 82.5852 181.602 81.9034C182.018 81.2216 182.227 80.4782 182.227 79.6733V77.1023C182.066 77.2348 181.791 77.358 181.403 77.4716C181.024 77.5852 180.598 77.6847 180.124 77.7699C179.651 77.8551 179.182 77.9309 178.718 77.9972C178.254 78.0634 177.852 78.1203 177.511 78.1676C176.744 78.2718 176.057 78.4422 175.451 78.679C174.845 78.9157 174.367 79.2472 174.016 79.6733C173.666 80.09 173.491 80.6297 173.491 81.2926C173.491 82.2396 173.836 82.9545 174.528 83.4375C175.219 83.9205 176.1 84.1619 177.17 84.1619ZM203.42 65.6818V69.6591H190.877V65.6818H203.42ZM193.974 60.4545H199.116V80.9375C199.116 81.6288 199.22 82.1591 199.428 82.5284C199.646 82.8883 199.93 83.1345 200.281 83.267C200.631 83.3996 201.019 83.4659 201.445 83.4659C201.767 83.4659 202.061 83.4422 202.326 83.3949C202.601 83.3475 202.809 83.3049 202.951 83.267L203.817 87.2869C203.543 87.3816 203.15 87.4858 202.638 87.5994C202.137 87.7131 201.521 87.7794 200.792 87.7983C199.504 87.8362 198.344 87.642 197.312 87.2159C196.28 86.7803 195.46 86.108 194.854 85.1989C194.258 84.2898 193.964 83.1534 193.974 81.7898V60.4545ZM207.72 87.5V65.6818H212.862V87.5H207.72ZM210.305 62.5852C209.491 62.5852 208.79 62.3153 208.203 61.7756C207.616 61.2263 207.322 60.5682 207.322 59.8011C207.322 59.0246 207.616 58.3665 208.203 57.8267C208.79 57.2775 209.491 57.0028 210.305 57.0028C211.129 57.0028 211.83 57.2775 212.408 57.8267C212.995 58.3665 213.288 59.0246 213.288 59.8011C213.288 60.5682 212.995 61.2263 212.408 61.7756C211.83 62.3153 211.129 62.5852 210.305 62.5852ZM227.667 87.9261C225.536 87.9261 223.69 87.4574 222.127 86.5199C220.565 85.5824 219.353 84.2708 218.491 82.5852C217.638 80.8996 217.212 78.9299 217.212 76.6761C217.212 74.4223 217.638 72.4479 218.491 70.7528C219.353 69.0578 220.565 67.7415 222.127 66.804C223.69 65.8665 225.536 65.3977 227.667 65.3977C229.798 65.3977 231.644 65.8665 233.207 66.804C234.769 67.7415 235.977 69.0578 236.829 70.7528C237.691 72.4479 238.121 74.4223 238.121 76.6761C238.121 78.9299 237.691 80.8996 236.829 82.5852C235.977 84.2708 234.769 85.5824 233.207 86.5199C231.644 87.4574 229.798 87.9261 227.667 87.9261ZM227.695 83.8068C228.851 83.8068 229.817 83.4896 230.593 82.8551C231.37 82.2112 231.947 81.3494 232.326 80.2699C232.714 79.1903 232.908 77.9877 232.908 76.6619C232.908 75.3267 232.714 74.1193 232.326 73.0398C231.947 71.9508 231.37 71.0843 230.593 70.4403C229.817 69.7964 228.851 69.4744 227.695 69.4744C226.512 69.4744 225.527 69.7964 224.741 70.4403C223.964 71.0843 223.382 71.9508 222.994 73.0398C222.615 74.1193 222.425 75.3267 222.425 76.6619C222.425 77.9877 222.615 79.1903 222.994 80.2699C223.382 81.3494 223.964 82.2112 224.741 82.8551C225.527 83.4896 226.512 83.8068 227.695 83.8068ZM247.628 74.7159V87.5H242.486V65.6818H247.401V69.3892H247.656C248.158 68.1676 248.958 67.197 250.057 66.4773C251.165 65.7576 252.533 65.3977 254.162 65.3977C255.668 65.3977 256.979 65.7197 258.097 66.3636C259.223 67.0076 260.095 67.9403 260.71 69.1619C261.335 70.3835 261.643 71.8655 261.634 73.608V87.5H256.491V74.4034C256.491 72.9451 256.113 71.804 255.355 70.9801C254.607 70.1562 253.57 69.7443 252.244 69.7443C251.345 69.7443 250.545 69.9432 249.844 70.3409C249.152 70.7292 248.608 71.2926 248.21 72.0312C247.822 72.7699 247.628 73.6648 247.628 74.7159Z" fill="#3C3CE7"/>
</svg>
